<mxfile host="app.diagrams.net" modified="2023-10-31T07:43:51.458Z" agent="Mozilla/5.0 (Windows NT 10.0; Win64; x64) AppleWebKit/537.36 (KHTML, like Gecko) Chrome/118.0.0.0 Safari/537.36" etag="ZZ1X4i7wCoCYz1LL0una" version="22.0.8" type="github">
  <diagram id="C5RBs43oDa-KdzZeNtuy" name="Page-1">
    <mxGraphModel dx="880" dy="460" grid="1" gridSize="10" guides="1" tooltips="1" connect="1" arrows="1" fold="1" page="1" pageScale="1" pageWidth="827" pageHeight="1169" math="0" shadow="0">
      <root>
        <mxCell id="WIyWlLk6GJQsqaUBKTNV-0" />
        <mxCell id="WIyWlLk6GJQsqaUBKTNV-1" parent="WIyWlLk6GJQsqaUBKTNV-0" />
        <mxCell id="dtBfUttSNfhgkL2TdTeO-104" value="auditorium" style="shape=table;startSize=30;container=1;collapsible=0;childLayout=tableLayout;fixedRows=1;rowLines=0;fontStyle=0;strokeColor=default;fontSize=12;" parent="WIyWlLk6GJQsqaUBKTNV-1" vertex="1">
          <mxGeometry x="59" y="650" width="340" height="180" as="geometry" />
        </mxCell>
        <mxCell id="dtBfUttSNfhgkL2TdTeO-276" style="shape=tableRow;horizontal=0;startSize=0;swimlaneHead=0;swimlaneBody=0;top=0;left=0;bottom=0;right=0;collapsible=0;dropTarget=0;fillColor=none;points=[[0,0.5],[1,0.5]];portConstraint=eastwest;strokeColor=inherit;fontSize=12;" parent="dtBfUttSNfhgkL2TdTeO-104" vertex="1">
          <mxGeometry y="30" width="340" height="30" as="geometry" />
        </mxCell>
        <mxCell id="dtBfUttSNfhgkL2TdTeO-277" value="Physical Name" style="shape=partialRectangle;html=1;whiteSpace=wrap;connectable=0;fillColor=none;top=0;left=0;bottom=1;right=0;align=center;spacingLeft=6;overflow=hidden;strokeColor=inherit;fontSize=12;strokeWidth=1;" parent="dtBfUttSNfhgkL2TdTeO-276" vertex="1">
          <mxGeometry width="140" height="30" as="geometry">
            <mxRectangle width="140" height="30" as="alternateBounds" />
          </mxGeometry>
        </mxCell>
        <mxCell id="dtBfUttSNfhgkL2TdTeO-278" value="Data Type" style="shape=partialRectangle;html=1;whiteSpace=wrap;connectable=0;fillColor=none;top=0;left=0;bottom=1;right=0;align=center;spacingLeft=6;overflow=hidden;strokeColor=inherit;fontSize=12;strokeWidth=1;" parent="dtBfUttSNfhgkL2TdTeO-276" vertex="1">
          <mxGeometry x="140" width="110" height="30" as="geometry">
            <mxRectangle width="110" height="30" as="alternateBounds" />
          </mxGeometry>
        </mxCell>
        <mxCell id="dtBfUttSNfhgkL2TdTeO-283" value="Req&#39;d" style="shape=partialRectangle;html=1;whiteSpace=wrap;connectable=0;fillColor=none;top=0;left=0;bottom=1;right=0;align=center;spacingLeft=6;overflow=hidden;strokeColor=inherit;fontSize=12;strokeWidth=1;" parent="dtBfUttSNfhgkL2TdTeO-276" vertex="1">
          <mxGeometry x="250" width="45" height="30" as="geometry">
            <mxRectangle width="45" height="30" as="alternateBounds" />
          </mxGeometry>
        </mxCell>
        <mxCell id="dtBfUttSNfhgkL2TdTeO-288" value="PK" style="shape=partialRectangle;html=1;whiteSpace=wrap;connectable=0;fillColor=none;top=0;left=0;bottom=1;right=0;align=center;spacingLeft=6;overflow=hidden;strokeColor=inherit;fontSize=12;strokeWidth=1;" parent="dtBfUttSNfhgkL2TdTeO-276" vertex="1">
          <mxGeometry x="295" width="45" height="30" as="geometry">
            <mxRectangle width="45" height="30" as="alternateBounds" />
          </mxGeometry>
        </mxCell>
        <mxCell id="dtBfUttSNfhgkL2TdTeO-105" value="" style="shape=tableRow;horizontal=0;startSize=0;swimlaneHead=0;swimlaneBody=0;top=0;left=0;bottom=0;right=0;collapsible=0;dropTarget=0;fillColor=none;points=[[0,0.5],[1,0.5]];portConstraint=eastwest;strokeColor=inherit;fontSize=12;" parent="dtBfUttSNfhgkL2TdTeO-104" vertex="1">
          <mxGeometry y="60" width="340" height="30" as="geometry" />
        </mxCell>
        <mxCell id="dtBfUttSNfhgkL2TdTeO-107" value="nmr_audi" style="shape=partialRectangle;html=1;whiteSpace=wrap;connectable=0;fillColor=none;top=0;left=0;bottom=0;right=0;align=left;spacingLeft=6;overflow=hidden;strokeColor=inherit;fontSize=12;strokeWidth=1;" parent="dtBfUttSNfhgkL2TdTeO-105" vertex="1">
          <mxGeometry width="140" height="30" as="geometry">
            <mxRectangle width="140" height="30" as="alternateBounds" />
          </mxGeometry>
        </mxCell>
        <mxCell id="dtBfUttSNfhgkL2TdTeO-279" value="INT(2)" style="shape=partialRectangle;html=1;whiteSpace=wrap;connectable=0;fillColor=none;top=0;left=0;bottom=0;right=0;align=left;spacingLeft=6;overflow=hidden;strokeColor=inherit;fontSize=12;strokeWidth=1;" parent="dtBfUttSNfhgkL2TdTeO-105" vertex="1">
          <mxGeometry x="140" width="110" height="30" as="geometry">
            <mxRectangle width="110" height="30" as="alternateBounds" />
          </mxGeometry>
        </mxCell>
        <mxCell id="dtBfUttSNfhgkL2TdTeO-284" style="shape=partialRectangle;html=1;whiteSpace=wrap;connectable=0;fillColor=none;top=0;left=0;bottom=0;right=0;align=left;spacingLeft=6;overflow=hidden;strokeColor=inherit;fontSize=12;strokeWidth=1;" parent="dtBfUttSNfhgkL2TdTeO-105" vertex="1">
          <mxGeometry x="250" width="45" height="30" as="geometry">
            <mxRectangle width="45" height="30" as="alternateBounds" />
          </mxGeometry>
        </mxCell>
        <mxCell id="dtBfUttSNfhgkL2TdTeO-289" style="shape=partialRectangle;html=1;whiteSpace=wrap;connectable=0;fillColor=none;top=0;left=0;bottom=0;right=0;align=left;spacingLeft=6;overflow=hidden;strokeColor=inherit;fontSize=12;strokeWidth=1;" parent="dtBfUttSNfhgkL2TdTeO-105" vertex="1">
          <mxGeometry x="295" width="45" height="30" as="geometry">
            <mxRectangle width="45" height="30" as="alternateBounds" />
          </mxGeometry>
        </mxCell>
        <mxCell id="dtBfUttSNfhgkL2TdTeO-108" style="shape=tableRow;horizontal=0;startSize=0;swimlaneHead=0;swimlaneBody=0;top=0;left=0;bottom=0;right=0;collapsible=0;dropTarget=0;fillColor=none;points=[[0,0.5],[1,0.5]];portConstraint=eastwest;strokeColor=inherit;fontSize=12;" parent="dtBfUttSNfhgkL2TdTeO-104" vertex="1">
          <mxGeometry y="90" width="340" height="30" as="geometry" />
        </mxCell>
        <mxCell id="dtBfUttSNfhgkL2TdTeO-110" value="id_theater" style="shape=partialRectangle;html=1;whiteSpace=wrap;connectable=0;fillColor=none;top=0;left=0;bottom=0;right=0;align=left;spacingLeft=6;overflow=hidden;strokeColor=inherit;fontSize=12;" parent="dtBfUttSNfhgkL2TdTeO-108" vertex="1">
          <mxGeometry width="140" height="30" as="geometry">
            <mxRectangle width="140" height="30" as="alternateBounds" />
          </mxGeometry>
        </mxCell>
        <mxCell id="dtBfUttSNfhgkL2TdTeO-280" value="INT(12)" style="shape=partialRectangle;html=1;whiteSpace=wrap;connectable=0;fillColor=none;top=0;left=0;bottom=0;right=0;align=left;spacingLeft=6;overflow=hidden;strokeColor=inherit;fontSize=12;" parent="dtBfUttSNfhgkL2TdTeO-108" vertex="1">
          <mxGeometry x="140" width="110" height="30" as="geometry">
            <mxRectangle width="110" height="30" as="alternateBounds" />
          </mxGeometry>
        </mxCell>
        <mxCell id="dtBfUttSNfhgkL2TdTeO-285" style="shape=partialRectangle;html=1;whiteSpace=wrap;connectable=0;fillColor=none;top=0;left=0;bottom=0;right=0;align=left;spacingLeft=6;overflow=hidden;strokeColor=inherit;fontSize=12;" parent="dtBfUttSNfhgkL2TdTeO-108" vertex="1">
          <mxGeometry x="250" width="45" height="30" as="geometry">
            <mxRectangle width="45" height="30" as="alternateBounds" />
          </mxGeometry>
        </mxCell>
        <mxCell id="dtBfUttSNfhgkL2TdTeO-290" style="shape=partialRectangle;html=1;whiteSpace=wrap;connectable=0;fillColor=none;top=0;left=0;bottom=0;right=0;align=left;spacingLeft=6;overflow=hidden;strokeColor=inherit;fontSize=12;" parent="dtBfUttSNfhgkL2TdTeO-108" vertex="1">
          <mxGeometry x="295" width="45" height="30" as="geometry">
            <mxRectangle width="45" height="30" as="alternateBounds" />
          </mxGeometry>
        </mxCell>
        <mxCell id="dtBfUttSNfhgkL2TdTeO-111" value="" style="shape=tableRow;horizontal=0;startSize=0;swimlaneHead=0;swimlaneBody=0;top=0;left=0;bottom=0;right=0;collapsible=0;dropTarget=0;fillColor=none;points=[[0,0.5],[1,0.5]];portConstraint=eastwest;strokeColor=inherit;fontSize=12;" parent="dtBfUttSNfhgkL2TdTeO-104" vertex="1">
          <mxGeometry y="120" width="340" height="30" as="geometry" />
        </mxCell>
        <mxCell id="dtBfUttSNfhgkL2TdTeO-113" value="lokasi" style="shape=partialRectangle;html=1;whiteSpace=wrap;connectable=0;fillColor=none;top=0;left=0;bottom=0;right=0;align=left;spacingLeft=6;overflow=hidden;strokeColor=inherit;fontSize=12;" parent="dtBfUttSNfhgkL2TdTeO-111" vertex="1">
          <mxGeometry width="140" height="30" as="geometry">
            <mxRectangle width="140" height="30" as="alternateBounds" />
          </mxGeometry>
        </mxCell>
        <mxCell id="dtBfUttSNfhgkL2TdTeO-281" value="TEXT" style="shape=partialRectangle;html=1;whiteSpace=wrap;connectable=0;fillColor=none;top=0;left=0;bottom=0;right=0;align=left;spacingLeft=6;overflow=hidden;strokeColor=inherit;fontSize=12;" parent="dtBfUttSNfhgkL2TdTeO-111" vertex="1">
          <mxGeometry x="140" width="110" height="30" as="geometry">
            <mxRectangle width="110" height="30" as="alternateBounds" />
          </mxGeometry>
        </mxCell>
        <mxCell id="dtBfUttSNfhgkL2TdTeO-286" style="shape=partialRectangle;html=1;whiteSpace=wrap;connectable=0;fillColor=none;top=0;left=0;bottom=0;right=0;align=left;spacingLeft=6;overflow=hidden;strokeColor=inherit;fontSize=12;" parent="dtBfUttSNfhgkL2TdTeO-111" vertex="1">
          <mxGeometry x="250" width="45" height="30" as="geometry">
            <mxRectangle width="45" height="30" as="alternateBounds" />
          </mxGeometry>
        </mxCell>
        <mxCell id="dtBfUttSNfhgkL2TdTeO-291" style="shape=partialRectangle;html=1;whiteSpace=wrap;connectable=0;fillColor=none;top=0;left=0;bottom=0;right=0;align=left;spacingLeft=6;overflow=hidden;strokeColor=inherit;fontSize=12;" parent="dtBfUttSNfhgkL2TdTeO-111" vertex="1">
          <mxGeometry x="295" width="45" height="30" as="geometry">
            <mxRectangle width="45" height="30" as="alternateBounds" />
          </mxGeometry>
        </mxCell>
        <mxCell id="dtBfUttSNfhgkL2TdTeO-114" value="" style="shape=tableRow;horizontal=0;startSize=0;swimlaneHead=0;swimlaneBody=0;top=0;left=0;bottom=0;right=0;collapsible=0;dropTarget=0;fillColor=none;points=[[0,0.5],[1,0.5]];portConstraint=eastwest;strokeColor=inherit;fontSize=12;" parent="dtBfUttSNfhgkL2TdTeO-104" vertex="1">
          <mxGeometry y="150" width="340" height="30" as="geometry" />
        </mxCell>
        <mxCell id="dtBfUttSNfhgkL2TdTeO-116" value="jumlah_kursi" style="shape=partialRectangle;html=1;whiteSpace=wrap;connectable=0;fillColor=none;top=0;left=0;bottom=0;right=0;align=left;spacingLeft=6;overflow=hidden;strokeColor=inherit;fontSize=12;" parent="dtBfUttSNfhgkL2TdTeO-114" vertex="1">
          <mxGeometry width="140" height="30" as="geometry">
            <mxRectangle width="140" height="30" as="alternateBounds" />
          </mxGeometry>
        </mxCell>
        <mxCell id="dtBfUttSNfhgkL2TdTeO-282" value="INT(3)" style="shape=partialRectangle;html=1;whiteSpace=wrap;connectable=0;fillColor=none;top=0;left=0;bottom=0;right=0;align=left;spacingLeft=6;overflow=hidden;strokeColor=inherit;fontSize=12;" parent="dtBfUttSNfhgkL2TdTeO-114" vertex="1">
          <mxGeometry x="140" width="110" height="30" as="geometry">
            <mxRectangle width="110" height="30" as="alternateBounds" />
          </mxGeometry>
        </mxCell>
        <mxCell id="dtBfUttSNfhgkL2TdTeO-287" style="shape=partialRectangle;html=1;whiteSpace=wrap;connectable=0;fillColor=none;top=0;left=0;bottom=0;right=0;align=left;spacingLeft=6;overflow=hidden;strokeColor=inherit;fontSize=12;" parent="dtBfUttSNfhgkL2TdTeO-114" vertex="1">
          <mxGeometry x="250" width="45" height="30" as="geometry">
            <mxRectangle width="45" height="30" as="alternateBounds" />
          </mxGeometry>
        </mxCell>
        <mxCell id="dtBfUttSNfhgkL2TdTeO-292" style="shape=partialRectangle;html=1;whiteSpace=wrap;connectable=0;fillColor=none;top=0;left=0;bottom=0;right=0;align=left;spacingLeft=6;overflow=hidden;strokeColor=inherit;fontSize=12;" parent="dtBfUttSNfhgkL2TdTeO-114" vertex="1">
          <mxGeometry x="295" width="45" height="30" as="geometry">
            <mxRectangle width="45" height="30" as="alternateBounds" />
          </mxGeometry>
        </mxCell>
        <mxCell id="dtBfUttSNfhgkL2TdTeO-293" value="" style="dashed=0;labelPosition=right;align=left;shape=mxgraph.gmdl.checkbox;strokeColor=none;fillColor=#676767;strokeWidth=2;aspect=fixed;sketch=0;html=1;" parent="WIyWlLk6GJQsqaUBKTNV-1" vertex="1">
          <mxGeometry x="324" y="717" width="16" height="16" as="geometry" />
        </mxCell>
        <mxCell id="dtBfUttSNfhgkL2TdTeO-295" value="" style="dashed=0;labelPosition=right;align=left;shape=mxgraph.gmdl.checkbox;strokeColor=#666666;fillColor=none;strokeWidth=2;aspect=fixed;sketch=0;html=1;" parent="WIyWlLk6GJQsqaUBKTNV-1" vertex="1">
          <mxGeometry x="324" y="777" width="16" height="16" as="geometry" />
        </mxCell>
        <mxCell id="dtBfUttSNfhgkL2TdTeO-296" value="" style="dashed=0;labelPosition=right;align=left;shape=mxgraph.gmdl.checkbox;strokeColor=#666666;fillColor=none;strokeWidth=2;aspect=fixed;sketch=0;html=1;" parent="WIyWlLk6GJQsqaUBKTNV-1" vertex="1">
          <mxGeometry x="324" y="807" width="16" height="16" as="geometry" />
        </mxCell>
        <mxCell id="dtBfUttSNfhgkL2TdTeO-297" value="" style="dashed=0;labelPosition=right;align=left;shape=mxgraph.gmdl.checkbox;strokeColor=none;fillColor=#676767;strokeWidth=2;aspect=fixed;sketch=0;html=1;" parent="WIyWlLk6GJQsqaUBKTNV-1" vertex="1">
          <mxGeometry x="324" y="747" width="16" height="16" as="geometry" />
        </mxCell>
        <mxCell id="dtBfUttSNfhgkL2TdTeO-298" value="" style="dashed=0;labelPosition=right;align=left;shape=mxgraph.gmdl.checkbox;strokeColor=none;fillColor=#676767;strokeWidth=2;aspect=fixed;sketch=0;html=1;" parent="WIyWlLk6GJQsqaUBKTNV-1" vertex="1">
          <mxGeometry x="367" y="717" width="16" height="16" as="geometry" />
        </mxCell>
        <mxCell id="dtBfUttSNfhgkL2TdTeO-299" value="" style="dashed=0;labelPosition=right;align=left;shape=mxgraph.gmdl.checkbox;strokeColor=#666666;fillColor=none;strokeWidth=2;aspect=fixed;sketch=0;html=1;" parent="WIyWlLk6GJQsqaUBKTNV-1" vertex="1">
          <mxGeometry x="367" y="747" width="16" height="16" as="geometry" />
        </mxCell>
        <mxCell id="dtBfUttSNfhgkL2TdTeO-300" value="" style="dashed=0;labelPosition=right;align=left;shape=mxgraph.gmdl.checkbox;strokeColor=#666666;fillColor=none;strokeWidth=2;aspect=fixed;sketch=0;html=1;" parent="WIyWlLk6GJQsqaUBKTNV-1" vertex="1">
          <mxGeometry x="367" y="777" width="16" height="16" as="geometry" />
        </mxCell>
        <mxCell id="dtBfUttSNfhgkL2TdTeO-301" value="" style="dashed=0;labelPosition=right;align=left;shape=mxgraph.gmdl.checkbox;strokeColor=#666666;fillColor=none;strokeWidth=2;aspect=fixed;sketch=0;html=1;" parent="WIyWlLk6GJQsqaUBKTNV-1" vertex="1">
          <mxGeometry x="367" y="807" width="16" height="16" as="geometry" />
        </mxCell>
      </root>
    </mxGraphModel>
  </diagram>
</mxfile>
